<?xml version="1.0" encoding="utf-8"?>
<!-- Generator: Adobe Illustrator 23.0.3, SVG Export Plug-In . SVG Version: 6.00 Build 0)  -->
<svg version="1.1" id="Capa_1" xmlns="http://www.w3.org/2000/svg" xmlns:xlink="http://www.w3.org/1999/xlink" x="0px" y="0px"
	 viewBox="0 0 80 80" style="enable-background:new 0 0 80 80;" xml:space="preserve">
<path d="M80,9.1c-9.33,11.31-18.65,22.62-28.01,33.9c-1.03,1.25-1.53,2.47-1.51,4.13c0.09,7.04-0.01,14.09,0.05,21.14
	c0.01,1.63-0.58,2.64-2.04,3.35c-5,2.42-9.96,4.93-14.94,7.38c-2.46,1.21-4.04,0.22-4.04-2.55c-0.01-9.95-0.03-19.89,0.02-29.84
	c0.01-1.28-0.36-2.23-1.16-3.19c-9.06-10.93-18.09-21.9-27.13-32.85C0.82,10.09,0.41,9.59,0,9.1c0-0.47,0-0.95,0-1.42
	c0.64-1.44,1.76-1.83,3.29-1.83c24.47,0.03,48.94,0.03,73.41,0c1.53,0,2.65,0.4,3.3,1.83C80,8.15,80,8.63,80,9.1z M34.22,73.29
	c3.59-1.78,6.84-3.44,10.15-4.98c1.09-0.51,1.4-1.15,1.4-2.31c-0.04-6.93,0.03-13.86-0.01-20.8c-0.01-1.52,0.42-2.69,1.39-3.85
	c8.06-9.7,16.07-19.45,24.09-29.18c0.34-0.41,0.63-0.86,1.04-1.41c-21.66,0-43.01,0-64.65,0c0.69,0.86,1.19,1.5,1.71,2.12
	c7.04,8.55,13.94,17.22,21.21,25.57c2.81,3.23,3.92,6.47,3.76,10.7C34,57.05,34.22,64.99,34.22,73.29z"/>
</svg>
