<?xml version="1.0" encoding="utf-8"?>
<!-- Generator: Adobe Illustrator 23.0.3, SVG Export Plug-In . SVG Version: 6.00 Build 0)  -->
<svg version="1.1" id="Capa_1" xmlns="http://www.w3.org/2000/svg" xmlns:xlink="http://www.w3.org/1999/xlink" x="0px" y="0px"
	 viewBox="0 0 80 80" style="enable-background:new 0 0 80 80;" xml:space="preserve">
<style type="text/css">
	.st0{fill:#FFFFFF;}
	.st1{fill:#292929;}
	.st2{fill:#282828;}
</style>
<path class="st0" d="M11.56,80c-0.1,0-0.21,0-0.31,0c-0.26-0.12-0.52-0.12-0.78,0c-0.21,0-0.42,0-0.63,0
	c-0.31-0.12-0.63-0.12-0.94,0c-0.1,0-0.21,0-0.31,0c-1.19-0.24-2.45-0.2-3.53-0.91c-0.48-0.31-0.98-0.58-1.41-0.97
	c-0.2-0.17-0.38-0.38-0.59-0.53c-0.34-0.32-0.69-0.63-1-0.99c-0.23-0.21-0.3-0.54-0.56-0.72C0.45,74.57,0.18,73,0,71.41
	c0-0.1,0-0.21,0-0.31c0.12-0.31,0.12-0.63,0-0.94c0-0.21,0-0.42,0-0.63c0.12-0.31,0.12-0.63,0-0.94c0-0.1,0-0.21,0-0.31
	c0.26-1.04,0.2-2.14,0.7-3.14c0.67-1.33,1.59-2.44,2.62-3.47c6.67-6.68,13.34-13.35,20.02-20.03c0.2-0.2,0.41-0.4,0.61-0.61
	c0.88-0.9,0.89-0.98,0.16-2.03c-0.21-0.2-0.4-0.41-0.6-0.62c-0.41-0.23-0.73-0.57-0.97-0.97c-0.23-0.17-0.38-0.42-0.6-0.6
	c-0.41-0.23-0.72-0.57-0.97-0.97c-0.23-0.17-0.38-0.42-0.6-0.6c-0.41-0.23-0.72-0.57-0.97-0.97c-0.23-0.17-0.38-0.42-0.6-0.6
	c-0.41-0.23-0.72-0.57-0.97-0.97c-0.23-0.17-0.38-0.42-0.6-0.6c-0.41-0.23-0.72-0.56-0.97-0.97c-0.23-0.17-0.38-0.42-0.6-0.6
	c-0.41-0.23-0.72-0.56-0.96-0.96c-0.22-0.17-0.4-0.39-0.59-0.6c-0.44-0.23-0.75-0.61-1.04-1c-0.14-0.21-0.37-0.32-0.52-0.51
	c-0.39-0.3-0.75-0.64-1.03-1.05c-0.14-0.2-0.37-0.33-0.53-0.51c-0.39-0.3-0.75-0.64-1.04-1.05c-0.14-0.2-0.37-0.33-0.53-0.51
	c-0.39-0.3-0.75-0.64-1.04-1.05c-0.14-0.2-0.37-0.33-0.53-0.51c-0.39-0.3-0.75-0.64-1.04-1.05c-0.14-0.2-0.37-0.33-0.53-0.51
	c-0.39-0.3-0.75-0.64-1.04-1.05c-0.14-0.2-0.37-0.33-0.53-0.51c-0.39-0.3-0.75-0.64-1.03-1.04c-0.15-0.19-0.34-0.35-0.52-0.51
	c-0.42-0.28-0.69-0.69-1-1.07c-0.19-0.19-0.32-0.43-0.55-0.59C0.57,15.09,0.16,13.45,0,11.72c0-0.1,0-0.21,0-0.31
	c0.12-0.31,0.12-0.63,0-0.94c0-0.21,0-0.42,0-0.63c0.12-0.31,0.12-0.63,0-0.94C0,8.8,0,8.7,0,8.59c0.18-0.7,0.18-1.42,0.34-2.13
	c0.11-0.51,0.26-0.98,0.6-1.38c0.37-0.4,0.11-1.13,0.72-1.41c0.75-0.6,1.43-1.27,2.02-2.03c0.36-0.4,0.78-0.7,1.28-0.91
	C6.19,0.32,7.47,0.17,8.75,0c0.05,0,0.1,0,0.16,0c0.31,0.12,0.63,0.12,0.94,0c0.21,0,0.42,0,0.63,0c0.31,0.12,0.63,0.12,0.94,0
	c0.05,0,0.1,0,0.16,0c1.31,0.21,2.67,0.22,3.84,0.99c0.36,0.24,0.76,0.44,1.09,0.72c0.21,0.17,0.37,0.39,0.59,0.54
	c0.35,0.3,0.77,0.53,1,0.96c0.23,0.17,0.37,0.42,0.6,0.6c0.41,0.23,0.72,0.57,0.96,0.97c0.23,0.17,0.38,0.42,0.6,0.6
	c0.41,0.23,0.72,0.57,0.97,0.97c0.23,0.17,0.38,0.42,0.6,0.6c0.41,0.23,0.72,0.57,0.97,0.97c0.23,0.17,0.38,0.42,0.6,0.6
	c0.41,0.23,0.72,0.57,0.97,0.97c0.23,0.17,0.38,0.42,0.6,0.6c0.41,0.23,0.72,0.57,0.97,0.97c0.23,0.17,0.38,0.42,0.6,0.6
	c0.41,0.23,0.72,0.57,0.97,0.97c0.23,0.17,0.38,0.42,0.6,0.6c0.41,0.23,0.72,0.57,0.97,0.97c0.23,0.17,0.38,0.42,0.6,0.6
	c0.41,0.23,0.72,0.57,0.97,0.97c0.23,0.17,0.38,0.42,0.6,0.6c0.41,0.23,0.72,0.57,0.97,0.97c0.23,0.17,0.38,0.42,0.6,0.6
	c0.41,0.23,0.72,0.57,0.97,0.97c0.23,0.17,0.38,0.42,0.6,0.6c0.41,0.23,0.72,0.57,0.97,0.97c0.23,0.17,0.38,0.42,0.6,0.6
	c0.41,0.23,0.72,0.57,0.97,0.97c0.23,0.17,0.38,0.42,0.6,0.6c0.42,0.23,0.72,0.57,0.97,0.97c0.23,0.17,0.38,0.43,0.62,0.59
	c1.02,0.72,1.12,0.71,2.03-0.19c6.87-6.87,13.73-13.74,20.61-20.6c1.03-1.03,2.15-1.95,3.47-2.62C66.14,0.2,67.24,0.27,68.28,0
	c0.1,0,0.21,0,0.31,0c0.31,0.12,0.63,0.12,0.94,0c0.21,0,0.42,0,0.63,0c0.31,0.12,0.63,0.12,0.94,0c0.05,0,0.1,0,0.16,0
	c1.18,0.23,2.43,0.15,3.51,0.82c0.37,0.23,0.76,0.44,1.11,0.71c0.2,0.24,0.51,0.34,0.73,0.55c0.36,0.31,0.69,0.64,1,0.99
	c0.15,0.22,0.37,0.38,0.55,0.58c1.27,1.46,1.72,3.22,1.85,5.09c0,0.05,0,0.1,0,0.16c-0.12,0.31-0.12,0.63,0,0.94
	c0,0.21,0,0.42,0,0.63c-0.12,0.31-0.12,0.63,0,0.94c0,0.1,0,0.21,0,0.31c-0.26,1.12-0.23,2.29-0.81,3.36
	c-0.71,1.31-1.66,2.39-2.69,3.42c-6.8,6.82-13.61,13.63-20.43,20.44c-0.49,0.49-1.01,0.97-0.49,1.74c0.21,0.2,0.4,0.41,0.6,0.62
	c0.41,0.23,0.73,0.57,0.97,0.97c0.23,0.17,0.38,0.42,0.6,0.6c0.41,0.23,0.72,0.57,0.97,0.97c0.23,0.17,0.38,0.42,0.6,0.6
	c0.41,0.23,0.72,0.57,0.97,0.97c0.23,0.17,0.38,0.42,0.6,0.6c0.41,0.23,0.72,0.57,0.97,0.97c0.23,0.17,0.38,0.42,0.6,0.6
	c0.41,0.23,0.72,0.57,0.97,0.97c0.23,0.17,0.38,0.42,0.6,0.6c0.41,0.23,0.72,0.57,0.97,0.97c0.23,0.17,0.38,0.42,0.6,0.6
	c0.41,0.23,0.72,0.57,0.97,0.97c0.23,0.17,0.38,0.42,0.6,0.6c0.41,0.23,0.72,0.57,0.97,0.97c0.23,0.17,0.38,0.42,0.6,0.6
	c0.41,0.23,0.72,0.56,0.96,0.96c0.23,0.17,0.39,0.41,0.59,0.6c0.41,0.22,0.72,0.54,0.96,0.93c0.16,0.23,0.42,0.36,0.6,0.57
	c0.4,0.3,0.75,0.64,1.03,1.05c0.14,0.21,0.37,0.33,0.53,0.51c0.39,0.3,0.75,0.64,1.04,1.05c0.14,0.2,0.37,0.33,0.53,0.51
	c0.39,0.3,0.75,0.64,1.03,1.05c0.15,0.2,0.35,0.34,0.52,0.51c0.39,0.3,0.75,0.63,1,1.07c0.21,0.26,0.46,0.48,0.71,0.71
	c1.26,1.47,1.69,3.23,1.82,5.1c0,0.05,0,0.1,0,0.16c-0.12,0.31-0.12,0.63,0,0.94c0,0.21,0,0.42,0,0.63c-0.12,0.31-0.12,0.63,0,0.94
	c0,0.1,0,0.21,0,0.31c-0.25,0.89-0.12,1.84-0.51,2.7c-1.06,2.29-2.7,4.02-4.95,5.19c-1.05,0.54-2.2,0.47-3.29,0.71
	c-0.1,0-0.21,0-0.31,0c-0.26-0.12-0.52-0.12-0.78,0c-0.21,0-0.42,0-0.63,0c-0.31-0.12-0.63-0.12-0.94,0c-0.1,0-0.21,0-0.31,0
	c-1.25-0.24-2.55-0.25-3.68-0.98c-0.43-0.28-0.87-0.55-1.28-0.87c-0.26-0.22-0.43-0.52-0.72-0.71c-0.45-0.23-0.78-0.59-1.07-0.99
	c-0.14-0.21-0.37-0.32-0.52-0.51c-0.39-0.3-0.75-0.64-1.03-1.05c-0.14-0.2-0.37-0.33-0.53-0.51c-0.39-0.3-0.75-0.64-1.04-1.05
	c-0.14-0.2-0.37-0.33-0.53-0.51c-0.39-0.3-0.75-0.64-1.04-1.05c-0.14-0.2-0.37-0.33-0.53-0.51c-0.39-0.3-0.75-0.64-1.04-1.05
	c-0.14-0.2-0.37-0.33-0.53-0.51c-0.39-0.3-0.75-0.64-1.04-1.05c-0.14-0.2-0.37-0.33-0.53-0.51c-0.39-0.3-0.75-0.64-1.03-1.05
	c-0.15-0.19-0.34-0.34-0.52-0.51c-0.39-0.29-0.75-0.62-1.01-1.04c-0.22-0.17-0.36-0.42-0.59-0.59c-0.41-0.23-0.72-0.57-0.96-0.97
	c-0.23-0.17-0.38-0.42-0.6-0.6c-0.41-0.23-0.72-0.57-0.97-0.97c-0.23-0.17-0.38-0.42-0.6-0.6c-0.41-0.23-0.72-0.57-0.97-0.97
	c-0.23-0.17-0.38-0.42-0.6-0.6c-0.41-0.23-0.72-0.57-0.97-0.97c-0.23-0.17-0.38-0.42-0.6-0.6c-0.41-0.23-0.72-0.57-0.97-0.97
	c-0.23-0.17-0.38-0.42-0.6-0.6c-0.42-0.23-0.72-0.57-0.97-0.97c-0.23-0.17-0.38-0.43-0.62-0.6c-0.56-0.36-1.02-0.19-1.46,0.25
	c-0.73,0.74-1.47,1.47-2.21,2.21c-6.19,6.2-12.39,12.4-18.6,18.58c-0.88,0.88-1.82,1.7-2.89,2.36C14.29,79.72,12.92,79.8,11.56,80z"
	/>
<path class="st1" d="M-223,231c0.89,2,0.99,4,0,6C-223,235-223,233-223,231z"/>
<path class="st1" d="M289,237c-0.99-2-0.89-4,0-6C289,233,289,235,289,237z"/>
<path class="st1" d="M232-218c-2,0.99-4,0.88-6,0C228-218,230-218,232-218z"/>
<path class="st2" d="M222-218c-2,0.87-4,0.99-6,0C218-218,220-218,222-218z"/>
<path class="st2" d="M-150-218c-2,0.98-4,0.87-6,0C-154-218-152-218-150-218z"/>
<path class="st1" d="M-223-161c0.99,2,0.89,4,0,6C-223-157-223-159-223-161z"/>
<path class="st1" d="M289-155c-0.89-2-0.99-4,0-6C289-159,289-157,289-155z"/>
<path class="st2" d="M-223-151c0.88,2,0.99,4,0,6C-223-147-223-149-223-151z"/>
<path class="st2" d="M-223,221c0.99,2,0.89,4,0,6C-223,225-223,223-223,221z"/>
<path class="st1" d="M-160-218c-2,0.88-4,0.99-6,0C-164-218-162-218-160-218z"/>
<path class="st2" d="M289,227c-0.89-2-0.99-4,0-6C289,223,289,225,289,227z"/>
<path class="st2" d="M289-145c-0.99-2-0.89-4,0-6C289-149,289-147,289-145z"/>
<path class="st1" d="M-166,294c2-0.99,4-0.88,6,0C-162,294-164,294-166,294z"/>
<path class="st2" d="M216,294c2-0.99,4-0.87,6,0C220,294,218,294,216,294z"/>
<path class="st2" d="M-156,294c1.67-0.73,3.33-0.82,5,0C-152.67,294-154.33,294-156,294z"/>
<path class="st1" d="M226,294c1.67-0.74,3.33-0.83,5,0C229.33,294,227.67,294,226,294z"/>
</svg>
